<svg xmlns="http://www.w3.org/2000/svg" xmlns:xlink="http://www.w3.org/1999/xlink" width="300" height="300" viewBox="0 0 300 300">
  <defs>
    <clipPath id="clip-path">
      <rect id="Rectangle_1473" data-name="Rectangle 1473" width="236.121" height="192.548" fill="#001a41"/>
    </clipPath>
    <clipPath id="clip-Icon_socmed_TW">
      <rect width="300" height="300"/>
    </clipPath>
  </defs>
  <g id="Icon_socmed_TW" data-name="Icon socmed TW" clip-path="url(#clip-Icon_socmed_TW)">
    <g id="Group_4182" data-name="Group 4182" transform="translate(31.939 53.727)">
      <g id="Group_4052" data-name="Group 4052" transform="translate(0)" clip-path="url(#clip-path)">
        <path id="Path_16352" data-name="Path 16352" d="M235.859,23.654a83.047,83.047,0,0,1-19.31,20.973c-2.876,2.231-4.161,4.288-4.137,8.257.179,29.259-8.267,56.025-24.517,80.3a130.961,130.961,0,0,1-53.725,46.481,133.529,133.529,0,0,1-40.218,11.585,146.971,146.971,0,0,1-31.136.82,135.858,135.858,0,0,1-47.065-12.5A118.991,118.991,0,0,1,0,170.824c26.527,2.453,50-3.984,71.364-19.992-2.39-.578-4.368-.407-6.259-.75-18.251-3.314-30.757-13.7-37.987-30.639-1-2.35-.7-2.579,1.853-2.236a48.532,48.532,0,0,0,18.774-1.172c-11.7-2.878-20.9-8.516-27.944-17.437A47.019,47.019,0,0,1,9.323,67.82a46.52,46.52,0,0,0,10.31,4.2c3.448.909,6.959,1.824,11.057,1.479a52.376,52.376,0,0,1-11.3-10.914A48.305,48.305,0,0,1,9.809,37.231a49,49,0,0,1,5.422-26.553c.711-1.4,1.139-1.762,2.308-.36A136.582,136.582,0,0,0,71.934,49.938a131.067,131.067,0,0,0,34.57,8.836c2.6.3,5.213.481,7.8.831,1.711.23,1.984-.206,1.724-1.959-2.675-17.987,2.178-33.522,15.954-45.656,11.208-9.873,24.485-13.6,39.3-11.36A46.825,46.825,0,0,1,198.01,14.207a2.67,2.67,0,0,0,2.854.781,99.618,99.618,0,0,0,26.524-9.923c.66-.364,1.358-.658,2.53-1.219-3.689,11.33-10.62,19.528-19.858,26.08a61.129,61.129,0,0,0,14.4-2.787c3.755-1.121,7.441-2.471,11.157-3.72.079.08.158.158.24.235" transform="translate(0 0)" fill="#001a41"/>
        <path id="Path_16353" data-name="Path 16353" d="M406.219,40.233c.153-.173.32-.315.5-.05.017.025-.169.187-.261.286-.081-.077-.161-.155-.239-.236" transform="translate(-170.599 -16.814)" fill="#001a41"/>
      </g>
    </g>
  </g>
</svg>
