<svg xmlns="http://www.w3.org/2000/svg" xmlns:xlink="http://www.w3.org/1999/xlink" width="300" height="300" viewBox="0 0 300 300">
  <defs>
    <clipPath id="clip-path">
      <rect id="Rectangle_1533" data-name="Rectangle 1533" width="198.832" height="226.371" fill="#001a41"/>
    </clipPath>
    <clipPath id="clip-Icon_socmed_TT">
      <rect width="300" height="300"/>
    </clipPath>
  </defs>
  <g id="Icon_socmed_TT" data-name="Icon socmed TT" clip-path="url(#clip-Icon_socmed_TT)">
    <g id="Group_4622" data-name="Group 4622" transform="translate(50.584 36.814)">
      <g id="Group_4622-2" data-name="Group 4622" clip-path="url(#clip-path)">
        <path id="Path_16831" data-name="Path 16831" d="M68.794,226.371c-5.02-.739-10.117-1.146-15.049-2.272-27.927-6.375-49.713-30.623-53.2-58.965a70.1,70.1,0,0,1,58.71-78.108,65.044,65.044,0,0,1,22.1-.052v37.2c-1.961-.367-3.8-.78-5.665-1.05-18.192-2.648-35.507,10.078-37.9,27.831-2.565,19.056,10.152,35.824,28.855,38.346a33.738,33.738,0,0,0,37.817-34.262c-.208-26.852.006-53.708.021-80.562q.02-35.744,0-71.487V0H141.1c.537,3.807.867,7.615,1.631,11.335a56.9,56.9,0,0,0,53.309,45.044c2.246.076,2.816.671,2.791,2.885-.121,10.474-.054,20.951-.054,31.428v2.525a90.615,90.615,0,0,1-30.226-4.9A95.223,95.223,0,0,1,141.44,73.853c0,1.246,0,2.024,0,2.8q.113,39.175.231,78.348c.047,14.234-3.46,27.488-11.488,39.29C117.1,213.535,98.85,224.13,75.6,226c-.8.064-1.585.246-2.378.373Z" transform="translate(0)" fill="#001a41"/>
      </g>
    </g>
  </g>
</svg>
